<svg width="153" height="156" viewBox="0 0 153 156" fill="none" xmlns="http://www.w3.org/2000/svg">
<path d="M137.329 41.6956C141.131 49.7491 141.79 59.384 139.837 68.0201C138.91 72.0077 137.557 75.8039 135.424 79.2493C133.451 82.5027 130.558 85.3414 127.671 87.7432C126.294 88.8854 124.804 89.8891 123.344 90.8182C121.452 91.9929 119.559 93.1677 117.584 94.1294C113.765 95.9354 109.373 96.2498 105.249 95.8924C100.883 95.5139 96.603 94.2933 92.5435 92.7313C88.0587 90.978 83.5107 88.7558 79.5453 85.9147C75.4679 82.9351 72.1414 78.7075 71.2338 73.4537C70.4713 68.882 71.9816 64.2755 75.5322 61.4679C78.7207 58.9379 83.0092 58.048 86.9013 58.5656C91.1778 59.168 94.8785 61.6258 97.5449 65.2039C103.142 72.7437 103.789 83.8709 101.787 92.8374C100.762 97.486 98.9087 102.114 95.9285 105.795C92.687 109.711 88.3864 112.093 83.512 112.984C78.2942 113.896 72.8571 113.476 67.6624 113.077C62.0535 112.668 56.4635 112.004 50.952 110.934C39.97 108.901 29.123 105.695 18.6946 101.444C16.1127 100.37 13.6316 99.254 11.1095 98.0313C8.87099 96.9361 10.3659 93.2037 12.6044 94.2988C31.5651 103.357 52.1102 108.459 72.8444 109.33C77.3712 109.516 82.2413 109.681 86.5153 107.992C90.2854 106.516 93.239 103.528 95.1892 99.9123C97.229 96.0726 98.3771 91.7437 98.7676 87.4263C99.1693 83.2902 99.0038 78.8989 97.8604 74.8605C96.7579 70.9287 94.8082 67.2324 91.6225 64.7421C89.0151 62.6881 85.3954 62.1169 82.1558 62.6857C79.0579 63.3183 76.3101 65.1656 75.256 68.2153C73.9738 72.0435 75.7142 76.2623 78.1346 79.2012C81.2263 82.9708 85.946 85.1821 90.1395 87.2449C93.5832 88.8822 97.2472 90.1782 100.99 91.069C104.691 91.8533 108.543 92.2643 112.327 91.5883C115.94 90.923 119.151 88.7554 122.272 86.8117C125.191 84.9535 127.734 82.5735 130.053 79.9167C132.282 77.4837 133.601 74.8174 134.786 71.6502C137.354 64.6122 137.844 56.287 135.874 48.8815C135.337 46.8782 134.641 45.067 133.802 43.1921C133.362 42.2013 133.941 40.9642 134.848 40.5794C135.856 40.1518 136.89 40.7048 137.329 41.6956Z" fill="black"/>
<path d="M50.5276 91.0098C40.9938 91.3947 31.5455 92.6118 22.1715 94.4796C19.8887 94.9518 17.505 95.4669 15.2632 96.0457C14.4151 96.2815 13.3541 96.4215 12.5581 96.9453C11.9938 97.3087 12.0759 97.522 12.423 98.1191C12.8931 99.0362 13.4942 99.8357 14.0952 100.635C14.7782 101.648 15.5622 102.618 16.3462 103.588C17.7722 105.464 19.329 107.223 20.9867 108.939C24.668 112.711 28.7418 116.132 33.0251 119.029C33.8877 119.593 33.9466 121.119 33.3037 121.888C32.6008 122.806 31.4988 122.84 30.5951 122.169C26.3828 119.303 22.421 116.022 18.8106 112.281C16.97 110.395 15.1592 108.434 13.5503 106.387C12.0533 104.479 10.4144 102.507 9.25005 100.396C7.93265 98.0392 8.00889 95.3396 10.184 93.6725C12.1984 92.1976 15.0078 91.8741 17.3205 91.3272C22.3906 90.1687 27.5427 89.2236 32.6759 88.5345C38.4257 87.77 44.1865 87.187 49.9695 86.9666C51.0006 86.9013 51.9752 87.6044 52.1128 88.7245C52.3513 89.8019 51.5288 91.0193 50.5276 91.0098Z" fill="black"/>
</svg>
