<svg width="359" height="332" viewBox="0 0 359 332" fill="none" xmlns="http://www.w3.org/2000/svg">
<g filter="url(#filter0_d_235_498)">
<path d="M349 160.778C349 170.08 302.066 175.023 300.206 183.82C298.261 192.889 339.529 213.946 335.766 222.275C331.96 230.76 286.549 218.772 281.094 226.284C275.555 233.874 304.899 267.931 297.923 274.353C290.946 280.775 253.949 253.763 245.704 258.862C237.501 263.922 250.524 305.686 241.349 309.189C232.3 312.653 209.425 274.665 199.574 276.455C190.018 278.206 184.648 321.371 174.542 321.371C164.437 321.371 159.067 278.168 149.511 276.455C139.659 274.665 116.784 312.653 107.736 309.189C98.5183 305.686 111.541 263.883 103.381 258.862C95.1357 253.763 58.1385 280.775 51.1619 274.353C44.1852 267.931 73.5293 233.874 67.9903 226.284C62.4936 218.733 17.1244 230.721 13.319 222.275C9.55585 213.946 50.8236 192.889 48.8786 183.82C46.9336 175.023 0 170.08 0 160.778C0 151.476 46.9336 146.532 48.794 137.736C50.739 128.667 9.47129 107.61 13.2344 99.2807C17.0399 90.7957 62.4513 102.784 67.9057 95.2717C73.4448 87.6819 44.1007 53.6249 51.0773 47.2027C58.0539 40.7805 95.0511 67.7926 103.296 62.6938C111.499 57.6339 98.476 15.8703 107.651 12.3673C116.7 8.90318 139.575 46.8913 149.426 45.1009C158.982 43.3493 164.352 0.18457 174.458 0.18457C184.563 0.18457 189.933 43.3883 199.489 45.1009C209.341 46.8913 232.216 8.90318 241.264 12.3673C250.482 15.8703 237.459 57.6728 245.619 62.6938C253.864 67.7926 290.862 40.7805 297.838 47.2027C304.815 53.6249 275.471 87.6819 281.01 95.2717C286.506 102.823 331.876 90.8346 335.681 99.2807C339.444 107.61 298.176 128.667 300.121 137.736C302.066 146.532 349 151.476 349 160.778Z" fill="#6FC1EF"/>
</g>
<defs>
<filter id="filter0_d_235_498" x="0" y="0.18457" width="359" height="331.187" filterUnits="userSpaceOnUse" color-interpolation-filters="sRGB">
<feFlood flood-opacity="0" result="BackgroundImageFix"/>
<feColorMatrix in="SourceAlpha" type="matrix" values="0 0 0 0 0 0 0 0 0 0 0 0 0 0 0 0 0 0 127 0" result="hardAlpha"/>
<feOffset dx="10" dy="10"/>
<feComposite in2="hardAlpha" operator="out"/>
<feColorMatrix type="matrix" values="0 0 0 0 0 0 0 0 0 0 0 0 0 0 0 0 0 0 1 0"/>
<feBlend mode="normal" in2="BackgroundImageFix" result="effect1_dropShadow_235_498"/>
<feBlend mode="normal" in="SourceGraphic" in2="effect1_dropShadow_235_498" result="shape"/>
</filter>
</defs>
</svg>
