<?xml version="1.0" encoding="utf-8"?>
<svg viewBox="0 0 24 24" fill="#000000" xmlns="http://www.w3.org/2000/svg">
  <path d="M 22.393 6 C 22.226 5.71 21.995 5.457 21.741 5.31 L 12.925 0.22 C 12.417 -0.073 11.586 -0.073 11.078 0.22 L 2.26 5.31 C 1.752 5.603 1.337 6.323 1.337 6.91 L 1.337 17.09 C 1.337 17.384 1.441 17.71 1.608 18 C 1.775 18.29 2.006 18.543 2.26 18.689 L 11.076 23.78 C 11.584 24.073 12.415 24.073 12.923 23.78 L 21.739 18.689 C 21.993 18.543 22.224 18.29 22.391 18 C 22.558 17.71 22.662 17.384 22.662 17.09 L 22.662 6.91 C 22.664 6.616 22.56 6.29 22.393 6 L 22.393 6 Z M 12 19.109 C 8.08 19.109 4.891 15.92 4.891 12 C 4.891 8.08 8.08 4.891 12 4.891 C 14.538 4.896 16.882 6.248 18.156 8.443 L 15.08 10.224 C 14.443 9.125 13.27 8.447 12 8.445 C 10.04 8.445 8.446 10.04 8.446 12 C 8.446 13.96 10.04 15.555 12 15.555 C 13.27 15.552 14.443 14.875 15.08 13.777 L 18.157 15.557 C 16.882 17.752 14.538 19.104 12 19.109 Z"/>
</svg>