<svg width="410" height="358" viewBox="0 0 410 358" fill="none" xmlns="http://www.w3.org/2000/svg">
<path d="M328.82 129.499L326.881 131.317L329.165 132.676L402.725 176.476L316.124 181.296L312.933 181.474L314.488 184.266L357.178 260.912L274.776 229.935L271.557 228.725L272.098 232.121L285.962 319.277L217.416 263.692L214.744 261.526L214.183 264.919L199.809 351.769L154.777 276.475L153.136 273.732L151.387 276.407L103.912 348.996L102.76 263.391L102.724 260.734L100.181 261.504L20.3585 285.666L81.1954 228.62L83.1339 226.802L80.8506 225.442L7.29046 181.642L93.8912 176.822L97.0827 176.645L95.5274 173.852L52.8375 97.2062L135.239 128.184L138.458 129.394L137.918 125.997L124.053 38.8417L192.6 94.4268L195.271 96.593L195.833 93.1999L210.206 6.34955L255.238 81.6431L256.879 84.3863L258.629 81.7112L306.103 9.12258L307.255 94.7276L307.291 97.3849L309.834 96.6149L389.657 72.452L328.82 129.499Z" fill="#B76FEF" stroke="black" stroke-width="4"/>
</svg>
