<svg width="467" height="467" viewBox="0 0 467 467" fill="none" xmlns="http://www.w3.org/2000/svg">
<path d="M466.132 266.124C464.237 279.604 400.64 277.971 396.367 290.369C391.927 303.146 442.673 341.394 435.958 352.759C429.155 364.341 371.036 338.458 362.232 348.321C353.299 358.281 385.497 413.132 374.885 421.131C364.273 429.13 320.435 383.053 308.401 388.896C296.431 394.691 305.293 457.651 292.343 461.007C279.571 464.331 256.802 404.996 243.298 405.744C230.198 406.491 214.246 468.034 200.769 466.14C187.293 464.246 188.93 400.633 176.535 396.361C163.761 391.92 125.519 442.68 114.158 435.965C102.578 429.161 128.459 371.027 118.599 362.221C108.642 353.287 53.801 385.496 45.8049 374.882C37.8088 364.268 83.8779 320.416 78.0368 308.38C72.2442 296.408 9.29845 305.276 5.94364 292.324C2.62143 279.549 61.9444 256.77 61.1975 243.264C60.3951 230.153 -1.18881 214.193 0.705673 200.713C2.60016 187.233 66.1975 188.867 70.47 176.468C74.9108 163.691 24.1645 125.444 30.8793 114.079C37.6823 102.497 95.8015 128.38 104.605 118.516C113.538 108.556 81.3406 53.705 91.9525 45.7063C102.564 37.7077 146.403 83.7846 158.437 77.9413C170.406 72.1465 161.544 9.18675 174.494 5.83029C187.266 2.50646 210.036 61.8417 223.539 61.0937C236.639 60.3466 252.591 -1.19627 266.068 0.697754C279.545 2.59178 277.907 66.204 290.302 70.4766C303.076 74.9176 341.318 24.157 352.68 30.8727C364.259 37.6764 338.378 95.8109 348.239 104.616C358.196 113.55 413.036 81.3416 421.032 91.9555C429.029 102.569 382.959 146.421 388.801 158.457C394.593 170.43 457.539 161.561 460.894 174.514C464.216 187.289 404.893 210.067 405.64 223.573C406.442 236.685 468.026 252.644 466.132 266.124Z"  fill="#EF6F6F"/>
</svg>
